%
M48
M72
T01C0.01181
T02C0.02362
T03C0.02953
T04C0.03150
T05C0.03622
T06C0.04000
T07C0.04016
T08C0.04724
T09C0.05118
T10C0.05236
T11C0.07283
T12C0.07874
T13C0.09055
T14C0.10630
T15C0.11024
T16C0.12598
%
T01
X107089Y97142
X112089Y97142
X107089Y102142
X107089Y107142
X107089Y112142
X107089Y117142
X112089Y117142
X107089Y124642
X107089Y132142
X87089Y133142
X87089Y126642
X82089Y122642
X76089Y122642
X70089Y122642
X87089Y139642
X82089Y143142
X76089Y143142
X70089Y143142
X97089Y163642
X97089Y168642
X97089Y173642
X108589Y173642
X108589Y168642
X108589Y163642
X97089Y185642
X97089Y190642
X97089Y196142
X127089Y187142
X127089Y207142
X127089Y227142
X112089Y231642
X107589Y235142
X94589Y232142
X107589Y257142
X127089Y247142
X152589Y264642
X148589Y274642
X168589Y258642
X170089Y264642
X175589Y259142
X173089Y247642
X187589Y245642
X187589Y250642
X199589Y254142
X203589Y254142
X206589Y253142
X210089Y250642
X212589Y253142
X217589Y254142
X220089Y252142
X227589Y252142
X231089Y254142
X237089Y254142
X237589Y250642
X237589Y241642
X237089Y236642
X232589Y232142
X237589Y228142
X237589Y223642
X233089Y222142
X235589Y218142
X233089Y214642
X236089Y211142
X237589Y206142
X233089Y204642
X227589Y199642
X220089Y199642
X217589Y204642
X217589Y214642
X217589Y222142
X217589Y232142
X220089Y237142
X227589Y237142
X210089Y234642
X187589Y228142
X187589Y212142
X173089Y214142
X161589Y210642
X168589Y198642
X157589Y194642
X157589Y179642
X173089Y179642
X187589Y183642
X200089Y180642
X203589Y180642
X206589Y181642
X210089Y184642
X212589Y181642
X217589Y180642
X220089Y184642
X227589Y184642
X231089Y180642
X237589Y183642
X237589Y192642
X236589Y197642
X250089Y182142
X245089Y174642
X260089Y174642
X265089Y182142
X283089Y182142
X308589Y183642
X315089Y187142
X313089Y194642
X308589Y198642
X315089Y202142
X313589Y212142
X334089Y199642
X345589Y194642
X334089Y189142
X313589Y177142
X344089Y152142
X355189Y146942
X355189Y142142
X355189Y129342
X355189Y124542
X355189Y114542
X355189Y109742
X344089Y119642
X327589Y96142
X317589Y96142
X315089Y102142
X315089Y107142
X309589Y107142
X309589Y102142
X303589Y102642
X303589Y107142
X303589Y111142
X297589Y110142
X297589Y104142
X287589Y104142
X287589Y110142
X281089Y109642
X280089Y113642
X281089Y105142
X280089Y101142
X280089Y84642
X302589Y77142
X307589Y77142
X312589Y77142
X317589Y77142
X322589Y77142
X327589Y77142
X317589Y70016
X317589Y66079
X317589Y62142
X317589Y58205
X317589Y54268
X321526Y58205
X321526Y62142
X321526Y66079
X313652Y66079
X313652Y62142
X313652Y58205
X311089Y49642
X308089Y49642
X305089Y49642
X322589Y44642
X322589Y39642
X322589Y34642
X322589Y29642
X327589Y29642
X332589Y29642
X332589Y34642
X327589Y34642
X327589Y39642
X332589Y39642
X332589Y44642
X327589Y44642
X327089Y49642
X330089Y49642
X324089Y49642
X307589Y96142
X255089Y104642
X255089Y112142
X255089Y119642
X245089Y127142
X240089Y119642
X240089Y112142
X240089Y104642
X225089Y109642
X230089Y119642
X230089Y127142
X237589Y127142
X222589Y127142
X220089Y119642
X210089Y119642
X210089Y112142
X210089Y104642
X195089Y104642
X185089Y109642
X180089Y109642
X180089Y114642
X185089Y114642
X185089Y119642
X190089Y119642
X195089Y119642
X195089Y112142
X200089Y127142
X207589Y127142
X222589Y142142
X230089Y142142
X237589Y142142
X252589Y142142
X207589Y149642
X200089Y149642
X192589Y149642
X192589Y142142
X185089Y142142
X170089Y162142
X151589Y162142
X146589Y157142
X142589Y147142
X152589Y144642
X162589Y144642
X155089Y119142
X155089Y116142
X155089Y113142
X150463Y107142
X146526Y107142
X146526Y103205
X142589Y103205
X138652Y103205
X138652Y107142
X142589Y107142
X142589Y111079
X146526Y111079
X138652Y111079
X134715Y107142
X127589Y104642
X127589Y99642
X127589Y94642
X122589Y94642
X127589Y109642
X127589Y114642
X155089Y100642
X155089Y97642
X155089Y94642
X165089Y112142
X170089Y112142
X175089Y112142
X175089Y117142
X170089Y117142
X165089Y117142
X180089Y119642
X200089Y164642
X207589Y164642
X210089Y199642
X168589Y233642
X161589Y233642
X157589Y247142
X157589Y254642
X177589Y289642
X185589Y292142
X185589Y302142
X198589Y286642
X200089Y282142
X207589Y282142
X205589Y267142
X200089Y267142
X237589Y297142
X237689Y292242
X238089Y307042
X238089Y312242
X222089Y307142
X220089Y302142
X195589Y332642
X199589Y335142
X188089Y336642
X184589Y333642
X211589Y335142
X223589Y335142
X235089Y335142
X253089Y354642
X242089Y362642
X246589Y370642
X246589Y374142
X242089Y374142
X237589Y374142
X237589Y370642
X232589Y370642
X232589Y374142
X227589Y374142
X227589Y370642
X223089Y370642
X220089Y370642
X215089Y370642
X215089Y374142
X210089Y374142
X210089Y370642
X204089Y370642
X204089Y374142
X199589Y374142
X199589Y370642
X194589Y370642
X194589Y374142
X190089Y374142
X190089Y370642
X185589Y370642
X182089Y370642
X180589Y374142
X185589Y374142
X217589Y394642
X251589Y374142
X251589Y370642
X259089Y377642
X311589Y342142
X322889Y337242
X322889Y332042
X322889Y347242
X322889Y352042
X315089Y312142
X315189Y302142
X315189Y296942
X315189Y286942
X315189Y282142
X304089Y292142
X344089Y269642
X355189Y264542
X355189Y259742
X355189Y246942
X355189Y242142
X355189Y232142
X355189Y227342
X344089Y237142
X360089Y207142
X364089Y194642
X360089Y182142
X355189Y162142
X355189Y157342
X440589Y181142
X459589Y195342
X462389Y198542
X471989Y194942
X473189Y200142
X456089Y213142
X447089Y233142
X445089Y243142
X439089Y243142
X433089Y243142
X433089Y251142
X439089Y251142
X445089Y251142
X447089Y261142
X464089Y181142
X447089Y91142
X445089Y81142
X439089Y81142
X433089Y81142
X433089Y73142
X439089Y73142
X445089Y73142
X447089Y63142
X427589Y41642
X427589Y37642
X427589Y33642
X578089Y73142
X584089Y73142
X590089Y73142
X590089Y81142
X584089Y81142
X578089Y81142
X592089Y91142
X592089Y63142
X592089Y233142
X590089Y243142
X584089Y243142
X578089Y243142
X578089Y251142
X584089Y251142
X590089Y251142
X592089Y261142
X592089Y403142
X590089Y413142
X584089Y413142
X578089Y413142
X578089Y421142
X584089Y421142
X590089Y421142
X592089Y431142
X447089Y431142
X445089Y421142
X439089Y421142
X433089Y421142
X433089Y413142
X439089Y413142
X445089Y413142
X447089Y403142
X368589Y461142
X346589Y461142
X319189Y474642
X314289Y477642
X351589Y487642
X355589Y487642
X355089Y507642
X365089Y507642
X342589Y529142
X322589Y529142
X256589Y516142
X251589Y516142
X246589Y516142
X239089Y508142
X237089Y504642
X234089Y505642
X231089Y508142
X228589Y505642
X223089Y508142
X218589Y505642
X215089Y508142
X211589Y508142
X211089Y504142
X205589Y508642
X201589Y515642
X198589Y515142
X204089Y518142
X208089Y519642
X211589Y519642
X222089Y521142
X234089Y523142
X237089Y526142
X243589Y506642
X246589Y496142
X250589Y496142
X257089Y496142
X240589Y496142
X232589Y496142
X228589Y490142
X224589Y496142
X217089Y496142
X206089Y496142
X199589Y496142
X198589Y491142
X190589Y493642
X188089Y496142
X180589Y496142
X172589Y493142
X157589Y497142
X152589Y497142
X152589Y506142
X157589Y509142
X157089Y518142
X152589Y518142
X148089Y515642
X172589Y514642
X176589Y514642
X183589Y527142
X188589Y527142
X193589Y527142
X198589Y527142
X198589Y532142
X193589Y532142
X193589Y537142
X198589Y537142
X195589Y547642
X195589Y552642
X195589Y557642
X195589Y562642
X180589Y562642
X180589Y557642
X180589Y552642
X180589Y547642
X174089Y529142
X188089Y485142
X202089Y459142
X250089Y477642
X252589Y474642
X240089Y549642
X100589Y470642
X98089Y454642
X98089Y434642
X102589Y418642
X97589Y416142
X106589Y404642
X113089Y395642
X113089Y374642
X76589Y385642
X76589Y398642
X68589Y410142
X65589Y432142
X73089Y467142
X57589Y484642
X57589Y507142
X42089Y516142
X37089Y537642
X90589Y519642
X90589Y488142
X37089Y475142
X53089Y365642
X55089Y353142
X55089Y347142
X55089Y341142
X55089Y335642
X64589Y308642
X69589Y308642
X74589Y308642
X74589Y296142
X69589Y296142
X64589Y296142
X92589Y322642
X113589Y304142
X130589Y322142
X137589Y311142
X148589Y299642
X169089Y298642
X156089Y329642
X245089Y259642
X250089Y252142
X260089Y259642
X265089Y252142
X267589Y217142
X355189Y274942
X355189Y279342
X142589Y167142
X193089Y67142
X193089Y62142
X199089Y64642
X204589Y68142
X209089Y68142
X216089Y64642
T02
X52589Y120567
X52589Y173717
T03
X98652Y147142
X106526Y147142
T04
X444565Y197260
X468187Y197260
T05
X78258Y238363
X78258Y248205
X78258Y256079
X78258Y265922
T06
X102589Y532142
X112589Y532142
X112589Y542142
X102589Y542142
X122589Y542142
X122589Y532142
X132589Y532142
X142589Y532142
X142589Y542142
X132589Y542142
X152589Y542142
X152589Y532142
X212589Y537142
X222589Y537142
X232589Y537142
X252589Y537142
X262589Y537142
X272589Y537142
X282589Y537142
X292589Y537142
X302589Y537142
T07
X75089Y199642
X65089Y199642
X55089Y199642
X45089Y199642
T08
X102549Y61985
X102549Y42300
X172628Y42300
X172628Y61985
T09
X55089Y191138
T10
X37589Y321237
X57077Y323599
X57077Y380686
X37589Y383048
T11
X40109Y108127
X77589Y100646
X77589Y82142
X77589Y63638
X40109Y56158
T12
X42589Y406142
X42589Y458142
T13
X67589Y278008
X67589Y226276
T14
X76211Y161316
X76211Y132969
X132943Y374111
X132943Y504032
X321920Y504032
X321920Y374111
T15
X412589Y382079
X412589Y562079
X412589Y182079
X592589Y182079
T16
X42589Y37142
X42589Y297142
X42589Y557142
X352589Y557142
X387589Y532142
X492589Y532142
X532589Y532142
X637589Y532142
X662589Y557142
X637589Y402142
X637589Y362142
X662589Y297142
X637589Y232142
X637589Y192142
X532589Y192142
X492589Y192142
X492589Y232142
X532589Y232142
X387589Y232142
X387589Y192142
X352589Y297142
X387589Y362142
X387589Y402142
X492589Y402142
X492589Y362142
X532589Y362142
X532589Y402142
X532589Y62142
X492589Y62142
X387589Y62142
X352589Y37142
X637589Y62142
X662589Y37142
M30
